<svg width="142" height="36" viewBox="0 0 142 36" fill="none" xmlns="http://www.w3.org/2000/svg">
<path d="M15.3319 35.5L30.6243 26.5443L15.3306 17.5592L0 26.5216L15.3319 35.5ZM15.3319 18.8562L20.558 30.8786L15.3306 33.9399L10.1058 30.8746L15.3319 18.8562Z" fill="white"/>
<mask id="mask0_184_4" style="mask-type:luminance" maskUnits="userSpaceOnUse" x="0" y="17" width="31" height="19">
<path d="M15.3319 35.5L30.6243 26.5443L15.3306 17.5592L0 26.5216L15.3319 35.5ZM15.3319 18.8562L20.558 30.8786L15.3306 33.9399L10.1058 30.8746L15.3319 18.8562Z" fill="white"/>
</mask>
<g mask="url(#mask0_184_4)">
<path d="M32.7045 0.365097H-2.08276V35.6349H32.7045V0.365097Z" fill="white"/>
</g>
<path d="M4.45811 18.3566L2.69674 17.3175V10.213L11.2994 5.17753V18.3566L13.9632 16.8006V0.5L0.032959 8.65429V15.0669V18.3633V20.9438L4.45811 18.3566Z" fill="white"/>
<mask id="mask1_184_4" style="mask-type:luminance" maskUnits="userSpaceOnUse" x="0" y="0" width="14" height="21">
<path d="M4.45811 18.3566L2.69674 17.3175V10.213L11.2994 5.17753V18.3566L13.9632 16.8006V0.5L0.032959 8.65429V15.0669V18.3633V20.9438L4.45811 18.3566Z" fill="white"/>
</mask>
<g mask="url(#mask1_184_4)">
<path d="M32.7045 0.365097H-2.08276V35.6349H32.7045V0.365097Z" fill="white"/>
</g>
<path d="M26.1663 18.3566L27.9263 17.3175V10.213L19.3237 5.17753V18.3566L16.6599 16.8006V0.5L30.5901 8.65429V15.0669V18.3633V20.9438L26.1663 18.3566Z" fill="white"/>
<mask id="mask2_184_4" style="mask-type:luminance" maskUnits="userSpaceOnUse" x="16" y="0" width="15" height="21">
<path d="M26.1663 18.3566L27.9263 17.3175V10.213L19.3237 5.17753V18.3566L16.6599 16.8006V0.5L30.5901 8.65429V15.0669V18.3633V20.9438L26.1663 18.3566Z" fill="white"/>
</mask>
<g mask="url(#mask2_184_4)">
<path d="M32.7045 0.365082H-2.08276V35.6349H32.7045V0.365082Z" fill="white"/>
</g>
<path d="M71.6442 13.1448L67.9449 23.3227L64.4999 13.7619H61.4409L66.2679 25.7736C66.4773 26.2959 66.9793 26.6365 67.5352 26.6365H69.2492L74.6518 13.1435H71.6442V13.1448Z" fill="white"/>
<path d="M84.4494 22.91C83.4468 23.865 82.4351 24.4954 80.8173 24.4954C79.7884 24.4954 78.882 24.1815 78.1957 23.5871C77.4856 22.9714 77.0232 22.0645 76.8611 20.9612L76.844 20.8463H86.7179C86.7403 20.5765 86.7614 20.3228 86.7614 20.0716C86.7614 16.4827 84.8064 12.8617 80.4379 12.8617C76.7597 12.8617 73.9866 15.8616 73.9866 19.8392V19.8913C73.9866 23.9197 76.8387 26.8435 80.7672 26.8435C82.9554 26.8435 84.705 26.0461 86.1119 24.4046L84.4507 22.91H84.4494ZM76.8348 18.8735C77.1299 16.6136 78.5 15.2085 80.4115 15.2085C81.397 15.2085 82.248 15.5811 82.8711 16.2877C83.4442 16.9368 83.8038 17.8317 83.9119 18.8762L83.9237 18.9871H76.8216L76.8361 18.8735H76.8348Z" fill="white"/>
<path d="M102.521 15.493C103.416 15.493 104.117 15.7908 104.603 16.3785C105.09 16.9675 105.337 17.8197 105.337 18.9136V25.795C105.337 26.2037 105.663 26.5336 106.065 26.5336H108.21V17.9599C108.21 14.7196 106.534 12.8617 103.612 12.8617C101.8 12.8617 100.389 13.6097 99.1713 15.2165L99.0752 15.3434L99.004 15.2004C98.261 13.6925 96.8672 12.8617 95.0808 12.8617C92.9835 12.8617 91.8374 14.0918 91.0733 15.163L90.8941 15.4142V13.1462H87.9945V25.7963C87.9945 26.2051 88.3212 26.535 88.723 26.535H90.8928V18.9657C90.8928 16.8567 92.0574 15.493 93.8609 15.493C94.7554 15.493 95.4549 15.7895 95.9424 16.3745C96.4298 16.9595 96.6762 17.805 96.6762 18.8882V25.7963C96.6762 26.2051 97.0029 26.535 97.4047 26.535H99.5494V18.9657C99.5494 16.8246 100.686 15.493 102.518 15.493H102.521Z" fill="white"/>
<path d="M110.236 13.1448V25.795C110.236 26.2037 110.563 26.5336 110.965 26.5336H113.134V13.1448H110.235H110.236Z" fill="white"/>
<path d="M121.308 15.493C123.194 15.493 124.276 16.7391 124.276 18.9136V25.795C124.276 26.2037 124.602 26.5336 125.004 26.5336H127.149V17.9599C127.149 14.7677 125.402 12.8617 122.475 12.8617C120.285 12.8617 119.13 14.1052 118.367 15.1871L118.188 15.4422V13.1448H115.288V25.795C115.288 26.2037 115.615 26.5336 116.017 26.5336H118.187V18.9644C118.187 17.9052 118.484 17.021 119.048 16.4092C119.6 15.8095 120.381 15.493 121.308 15.493Z" fill="white"/>
<path d="M142 26.535V7.9464H139.125V15.4596L138.948 15.2151C137.808 13.6537 136.297 12.8617 134.458 12.8617C131.416 12.8617 128.337 15.2499 128.337 19.8139V19.866C128.337 24.4299 131.416 26.8181 134.458 26.8181C136.3 26.8181 137.767 25.998 138.946 24.3124L139.125 24.056V25.7963C139.125 26.2051 139.452 26.535 139.854 26.535H141.999H142ZM137.979 23.0849C137.236 23.8783 136.247 24.3164 135.194 24.3164C134.142 24.3164 133.13 23.8823 132.403 23.0943C131.65 22.2808 131.237 21.1335 131.237 19.866V19.8139C131.237 17.2347 132.901 15.3634 135.194 15.3634C136.249 15.3634 137.239 15.7975 137.979 16.5855C138.753 17.407 139.178 18.5543 139.178 19.8139V19.866C139.178 21.1161 138.753 22.2595 137.981 23.0849H137.979Z" fill="white"/>
<path d="M55.8802 14.5954V11.8613L53.3125 12.3528V8.71841H50.3879V12.9124L45.1736 13.9088V8.71841H42.249V14.4685L39.1874 15.0535V17.7876L42.249 17.2026V19.6496L39.1874 20.2346V22.9687L42.249 22.3837V25.7963C42.249 26.2051 42.5757 26.535 42.9775 26.535H45.1736V21.824L50.3879 20.8276V25.7963C50.3879 26.2051 50.7146 26.535 51.1164 26.535H53.3125V20.268L55.8802 19.7765V17.0423L53.3125 17.5339V15.0869L55.8802 14.5954ZM50.3879 18.0935L45.1736 19.0899V16.643L50.3879 15.6466V18.0935Z" fill="white"/>
<path d="M57.3319 16.7659V25.7963C57.3319 26.2051 57.6586 26.535 58.0604 26.535H60.2302V16.2115L57.3306 16.7659H57.3319Z" fill="white"/>
<path d="M57.3319 14.3162L60.2302 13.7619V11.0278L57.3319 11.5821V14.3162Z" fill="white"/>
<path d="M110.236 9.3769L113.136 8.8226V6.08847L110.236 6.64278V9.3769Z" fill="white"/>
</svg>
